Coordinates
version=1
nRows=15
nColumns=34
inDegrees=yes

Units are S.I. units (second, meters, Newtons, ...)
If the header above contains a line with 'inDegrees', this indicates whether rotational values are in degrees (yes) or radians (no).

endheader
time	pelvis_tilt	pelvis_list	pelvis_rotation	pelvis_tx	pelvis_ty	pelvis_tz	hip_flexion_r	hip_adduction_r	hip_rotation_r	knee_angle_r	ankle_angle_r	subtalar_angle_r	mtp_angle_r	hip_flexion_l	hip_adduction_l	hip_rotation_l	knee_angle_l	ankle_angle_l	subtalar_angle_l	mtp_angle_l	lumbar_extension	lumbar_bending	lumbar_rotation	arm_flex_r	arm_add_r	arm_rot_r	elbow_flex_r	pro_sup_r	arm_flex_l	arm_add_l	arm_rot_l	elbow_flex_l	pro_sup_l
      1.75000000	    -24.10552344	      1.79009658	      7.63203569	      1.84694803	      0.82993951	     -0.09205920	      5.64828651	      0.46969233	    -35.96172752	      0.00000000	     13.09688704	      9.87936712	      0.00000000	      2.83373073	     -3.43237533	    -19.96462417	     12.79548862	    -11.98408019	      8.67282996	      0.00000000	     18.07638407	     -3.25171901	    -23.53556478	     16.51753951	     -8.21220283	     38.76157438	     32.13386453	     91.40691922	    -36.27487842	      6.40330875	    -35.58361682	     55.21802295	    103.64877464
      1.76666670	    -24.18174007	      4.13444304	      6.16580791	      1.85418374	      0.83231812	     -0.08690534	      4.80534738	     -1.64313736	    -35.45276287	      0.00000000	     11.69833427	      9.97751116	      0.00000000	      5.02253783	     -1.10735954	    -20.28639033	     14.49217874	    -12.32358579	      5.80668981	      0.00000000	     18.12614715	     -5.32927368	    -21.65477082	     17.75071152	     -6.85317336	     38.85558564	     30.96375452	     91.00422308	    -36.85153429	      6.25123132	    -35.78580094	     53.58923600	    102.90013010
      1.78333330	    -24.51143826	      5.92121130	      5.15894420	      1.85929068	      0.83302776	     -0.08284321	      4.36345440	     -3.30407342	    -35.39260183	      0.00000000	     10.86042070	     10.46421002	      0.00000000	      7.10491252	      0.72543010	    -21.70007199	     14.78795392	    -12.22832208	      4.10433128	      0.00000000	     18.65614156	     -7.05006454	    -20.31330681	     19.00656273	     -5.60229576	     39.07060861	     29.81393510	     90.78708408	    -37.60363726	      6.24721069	    -36.21055178	     52.43306494	    102.02658061
      1.80000000	    -24.73823186	      7.15683400	      4.73003094	      1.86311028	      0.83340400	     -0.08021220	      4.08423260	     -4.48446889	    -35.65123233	      0.00000000	     10.05809380	     10.75041861	      0.00000000	      8.69469494	      2.33768949	    -23.02669013	     13.49377042	    -11.06827975	      3.31228720	      0.00000000	     18.77122423	     -8.41144076	    -19.65829883	     19.97268013	     -4.83940004	     39.02934136	     30.04204815	     90.75134915	    -38.34136636	      6.36965774	    -36.32730333	     51.81815569	    101.86992866
      1.81666670	    -25.12968229	      7.86486085	      4.43604818	      1.87047982	      0.83178153	     -0.07874629	      4.17860951	     -5.15038018	    -36.02562227	      0.00000000	      9.46946099	     10.83605897	      0.00000000	     10.18097050	      3.48763123	    -25.04194419	     11.70080659	     -9.64007272	      3.50995022	      0.00000000	     19.44249780	     -9.06160712	    -19.54670129	     21.25592820	     -3.72589743	     39.21017497	     28.81965945	     90.59647278	    -38.41122357	      6.63294152	    -37.08269264	     49.49114350	    100.48289966
      1.83333330	    -25.11723952	      8.14070855	      4.19548599	      1.87519985	      0.83095692	     -0.07749814	      4.06977196	     -5.36734233	    -36.35483219	      0.00000000	      9.00532801	     10.72341681	      0.00000000	     11.00009358	      4.31184316	    -25.61156539	      9.85099608	     -8.12270444	      2.82235453	      0.00000000	     19.38578151	     -9.39814988	    -19.38748517	     21.84891297	     -3.40047492	     39.16664634	     29.00171954	     90.56560993	    -38.76178191	      6.89366100	    -37.08655002	     49.06358217	    100.28738264
      1.85000000	    -24.91061714	      8.01882330	      3.83011253	      1.87965337	      0.83026376	     -0.07645083	      3.97689999	     -5.13116504	    -35.80774697	      0.00000000	      8.69308186	      9.83787035	      0.00000000	     11.98405965	      4.48622951	    -24.68427438	      9.15722472	     -4.43653624	      3.09581327	      0.00000000	     19.13844040	     -9.18658800	    -19.84551161	     22.38677414	     -2.97020881	     39.30609020	     29.06609376	     90.43515366	    -38.46550572	      7.13814106	    -37.10753850	     47.42393889	     99.11896098
      1.86666670	    -24.58619020	      7.83897792	      3.20650624	      1.88672175	      0.82910075	     -0.07517485	      3.65291378	     -4.82121341	    -35.03624961	      0.00000000	      9.37874849	      9.67171486	      0.00000000	     12.85987527	      4.45229346	    -22.05250906	      8.76294631	      0.70652296	      2.74848550	      0.00000000	     18.80143143	     -8.93725636	    -19.74386593	     22.54713447	     -2.79196773	     39.39910721	     29.15666937	     90.39731141	    -38.28886848	      7.32870123	    -36.95283775	     47.26092698	     98.78845956
      1.88333330	    -24.67105589	      7.50412881	      2.66473826	      1.89227260	      0.82695690	     -0.07422528	      3.84976789	     -4.56945571	    -34.60785967	      0.67545463	      9.84023496	      9.28736745	      0.00000000	     13.83871369	      4.17619047	    -19.91185613	      8.28248507	      7.07029398	      4.71325398	      0.00000000	     18.95952625	     -8.52893568	    -20.35991405	     22.83058464	     -2.50184049	     39.84158491	     29.49125760	     90.28588230	    -38.36341444	      7.72460163	    -36.48104813	     46.72782911	     97.85958527
      1.90000000	    -24.54666338	      7.21001603	      2.41097215	      1.89963805	      0.82416409	     -0.07420306	      3.73133069	     -4.46251822	    -33.98398400	      1.62992938	     10.66464242	      8.56831804	      0.00000000	     14.06327477	      4.08830176	    -18.65706600	      7.00643800	     12.00514672	      6.61029580	      0.00000000	     18.88655906	     -8.21959832	    -20.79528381	     23.22608989	     -2.27836430	     40.43111031	     29.61894405	     90.13551093	    -38.38587362	      8.04302465	    -36.17676674	     46.18670673	     96.81670939
      1.91666670	    -24.25472971	      6.99091503	      2.45295044	      1.90386617	      0.82265776	     -0.07484947	      3.65515947	     -4.45076117	    -33.54842938	      2.49245699	     12.01045160	      7.89977966	      0.00000000	     13.95101492	      4.32866477	    -17.79592640	      4.74661821	     14.55117649	      7.18400832	      0.00000000	     18.47356151	     -8.09270051	    -20.85035953	     23.48687674	     -2.23715440	     40.52642323	     29.65044836	     90.07820846	    -38.11536417	      8.13015700	    -36.13238890	     45.83364493	     96.55279602
      1.93333330	    -23.61029424	      6.94796358	      2.38748342	      1.90787605	      0.82393301	     -0.07505053	      3.22734438	     -4.50971353	    -33.10674443	      2.91172446	     12.94849210	      7.58084717	      0.00000000	     13.59267282	      4.79069823	    -19.75984053	      1.74130852	     16.38765671	     10.87346278	      0.00000000	     17.72484701	     -7.95220611	    -20.76630306	     23.85201618	     -2.02509045	     40.81160539	     29.48190436	     89.78760517	    -36.99954575	      7.85351743	    -36.08786052	     43.51224056	     95.46477394
      1.95000000	    -23.37373148	      6.85550103	      2.86413493	      1.91601530	      0.82241403	     -0.07715756	      3.03025693	     -4.62172279	    -32.84803070	      3.34287327	     14.36593906	      7.34069111	      0.00000000	     14.13480550	      5.26616448	    -21.14569834	      0.00000000	     17.51577142	     13.02321717	      0.00000000	     17.45750461	     -7.98447420	    -21.12577098	     23.85636791	     -1.94379912	     40.65349954	     29.34083654	     89.51622103	    -36.19279523	      7.60938252	    -35.83238970	     41.83646189	     94.75733837
      1.96666670	    -23.24177127	      6.79206915	      3.52596560	      1.91866553	      0.82369879	     -0.07815490	      2.92171022	     -4.77616726	    -33.10230029	      3.75141598	     15.01416550	      7.04616836	      0.00000000	     15.67209057	      5.49055443	    -23.61092344	      0.00000000	     19.28124808	     16.08475275	      0.00000000	     17.22308762	     -8.08892644	    -21.15158094	     23.61003369	     -2.02167267	     40.19174463	     28.99528500	     89.16651461	    -34.97071027	      6.87044385	    -35.38480947	     39.63521837	     93.91490940
      1.98333330	    -23.05266856	      6.78441606	      4.08355290	      1.92667217	      0.82513066	     -0.07942864	      2.44742608	     -4.86941288	    -33.04202706	      3.80317906	     15.08033876	      7.01374561	      0.00000000	     16.98320304	      5.75547329	    -24.13497578	      0.00000000	     19.49381467	     15.99457097	      0.00000000	     16.83727813	     -8.31717789	    -21.49497364	     23.23856479	     -2.09364027	     40.21525026	     28.83767269	     89.15971709	    -34.34505059	      6.56403060	    -35.35173209	     39.74277293	     93.88488842
